# File created by Blade
# Date/Time:  Mon Nov 18 18:33:23 2013
# Frame Rate: 100.000 fps
#------------------------------------------------------
:FULLY-SPECIFIED
:DEGREES
122
root 54.131391 -2.002704 50.840910 -2.337267 2.489847 -121.889215
Spine 11.383893 -1.702205 -0.666314
Spine1 2.969595 0.944594 -1.863794
Spine2 0.648322 -2.344930 -2.327117
NeckDummy 0.005281 -0.025811 -0.019444 -1.375927 1.932398 -0.782029
Neck 16.663236 0.690236 25.714663
Head -0.246498 0.342096 0.265472 -35.613291 -3.658453 -0.303294
LeftShoulderDummy -0.065491 -0.017922 0.019663 -1.353151 1.815156 -0.573535
LeftShoulder 8.077069 -4.398150 14.147056
LeftArm 15.680681 47.259058 26.673885
LeftForeArm 88.233847
LeftForeArmRoll -34.388023
LeftHand -9.130002 3.995180 -3.597997
LeftHandThumb1 15.883270 13.368464
LeftHandIndex1 15.854586 43.027426
LeftHandPinky1 14.650146 47.558995
RightShoulderDummy -0.048050 0.009493 0.073991 -1.396320 -1.925895 0.752983
RightShoulder 5.455310 5.294033 17.727211
RightArm -42.283858 70.211781 -7.208251
RightForeArm 112.527610
RightForeArmRoll 4.710554
RightHand -17.714181 -16.683616 11.810161
RightHandThumb1 -0.404411 12.953889
RightHandIndex1 13.272993 59.105872
RightHandPinky1 18.322518 68.418348
LeftUpLeg 4.983071 19.639599 -28.443653
LeftLeg 44.134138
LeftFoot 0.554345 -1.022904 -0.586562 -15.235100 8.938585 -6.892804
LeftToeBase -1.506430
RightUpLeg 14.667007 11.652084 -21.414493
RightLeg 56.472740
RightFoot -0.375966 0.427383 0.195990 0.410923 7.320262 -30.207740
RightToeBase -1.075684
123
root 54.114229 -2.006431 50.845490 -2.304679 2.419101 -121.827309
Spine 11.417735 -1.709898 -0.661313
Spine1 2.976816 0.934001 -1.850069
Spine2 0.614965 -2.323961 -2.314214
NeckDummy 0.004745 -0.028107 -0.018273 -1.367982 1.919930 -0.771116
Neck 16.591383 0.658306 25.676803
Head -0.248585 0.341826 0.263444 -35.569013 -3.671418 -0.309680
LeftShoulderDummy -0.065920 -0.020179 0.020815 -1.345205 1.802085 -0.561166
LeftShoulder 7.988944 -4.344885 14.076189
LeftArm 15.595696 47.380870 26.545370
LeftForeArm 88.276633
LeftForeArmRoll -34.332737
LeftHand -9.126929 3.997396 -3.640439
LeftHandThumb1 15.905680 13.392639
LeftHandIndex1 15.847756 43.006390
LeftHandPinky1 14.575300 47.601988
RightShoulderDummy -0.048636 0.007047 0.074228 -1.389350 -1.911544 0.740890
RightShoulder 5.392883 5.350217 17.775731
RightArm -42.468095 70.228972 -7.369048
RightForeArm 112.571528
RightForeArmRoll 4.697088
RightHand -17.834463 -16.611614 11.591605
RightHandThumb1 -0.746328 13.113616
RightHandIndex1 13.567827 58.441665
RightHandPinky1 18.668339 68.233574
LeftUpLeg 4.880648 19.637785 -28.574062
LeftLeg 44.260445
LeftFoot 0.563988 -1.027127 -0.586518 -15.239032 8.954874 -6.951006
LeftToeBase -1.567117
RightUpLeg 14.658774 11.584835 -21.424707
RightLeg 56.495589
RightFoot -0.376373 0.428028 0.190602 0.427799 7.422341 -30.215458
RightToeBase -1.075929
124
root 54.101748 -2.008595 50.842934 -2.286706 2.344627 -121.813568
Spine 11.431374 -1.719374 -0.657422
Spine1 2.972547 0.933540 -1.856999
Spine2 0.651056 -2.332794 -2.331841
NeckDummy 0.005125 -0.027769 -0.019574 -1.390480 1.933396 -0.778113
Neck 16.569736 0.631912 25.694327
Head -0.248162 0.341386 0.263519 -35.565676 -3.660002 -0.307419
LeftShoulderDummy -0.065590 -0.019825 0.020208 -1.367552 1.815591 -0.569225
LeftShoulder 7.991159 -4.344487 14.083175
LeftArm 15.595040 47.311425 26.483328
LeftForeArm 88.291156
LeftForeArmRoll -34.247462
LeftHand -9.132191 4.032139 -3.649978
LeftHandThumb1 15.906348 13.356929
LeftHandIndex1 15.809752 43.111993
LeftHandPinky1 14.569020 47.645523
RightShoulderDummy -0.048313 0.007524 0.074273 -1.411430 -1.925880 0.748428
RightShoulder 5.381728 5.355513 17.722417
RightArm -42.566848 70.298252 -7.505489
RightForeArm 112.608639
RightForeArmRoll 4.690437
RightHand -17.861618 -16.621946 11.594503
RightHandThumb1 -0.670842 13.158435
RightHandIndex1 13.553708 58.505505
RightHandPinky1 18.698334 68.283793
LeftUpLeg 4.825946 19.696955 -28.654924
LeftLeg 44.390423
LeftFoot 0.556387 -1.028915 -0.581610 -15.000283 8.965625 -7.051517
LeftToeBase -1.544215
RightUpLeg 14.616782 11.471972 -21.430593
RightLeg 56.495647
RightFoot -0.381643 0.425801 0.187790 0.469212 7.553764 -30.221670
RightToeBase -1.042974
125
root 54.077848 -2.011448 50.848191 -2.253230 2.303051 -121.739736
Spine 11.424965 -1.717837 -0.669804
Spine1 2.973244 0.933152 -1.898798
Spine2 0.650715 -2.344025 -2.368695
NeckDummy 0.005354 -0.027513 -0.019441 -1.377521 1.963790 -0.784129
Neck 16.539478 0.572637 25.682805
Head -0.247191 0.338667 0.263946 -35.564955 -3.632512 -0.321849
LeftShoulderDummy -0.066093 -0.019540 0.019374 -1.354222 1.845195 -0.572331
LeftShoulder 8.018409 -4.399869 14.097834
LeftArm 15.604034 47.212914 26.444850
LeftForeArm 88.315699
LeftForeArmRoll -34.189624
LeftHand -9.127920 4.043605 -3.695952
LeftHandThumb1 15.869930 13.361518
LeftHandIndex1 15.794708 43.143052
LeftHandPinky1 14.601541 47.723933
RightShoulderDummy -0.047938 0.007846 0.074596 -1.398142 -1.956811 0.755540
RightShoulder 5.382182 5.359825 17.699240
RightArm -42.580545 70.304052 -7.498557
RightForeArm 112.660541
RightForeArmRoll 4.557591
RightHand -17.781064 -16.716892 11.459829
RightHandThumb1 -0.915593 13.211549
RightHandIndex1 13.838126 59.044868
RightHandPinky1 18.793755 68.214961
LeftUpLeg 4.793606 19.667176 -28.760284
LeftLeg 44.480343
LeftFoot 0.583025 -1.031749 -0.592780 -15.036150 8.973534 -7.161213
LeftToeBase -1.378772
RightUpLeg 14.649416 11.481439 -21.425607
RightLeg 56.498579
RightFoot -0.377837 0.425394 0.190186 0.420464 7.600591 -30.189688
RightToeBase -1.012857
126
root 54.057538 -2.013848 50.852007 -2.247154 2.261900 -121.728482
Spine 11.445292 -1.747443 -0.645090
Spine1 2.985643 0.917899 -1.851486
Spine2 0.656009 -2.296803 -2.418516
NeckDummy 0.005201 -0.028663 -0.019869 -1.373626 1.994339 -0.772908
Neck 16.533153 0.497537 25.600830
Head -0.246745 0.339439 0.262602 -35.519646 -3.658213 -0.289135
LeftShoulderDummy -0.065839 -0.020646 0.018106 -1.350424 1.875845 -0.561104
LeftShoulder 8.046206 -4.400954 14.089483
LeftArm 15.762653 47.220318 26.548372
LeftForeArm 88.280155
LeftForeArmRoll -34.161804
LeftHand -9.102855 4.180828 -3.681417
LeftHandThumb1 15.831559 13.293473
LeftHandIndex1 15.780365 43.007077
LeftHandPinky1 14.634602 47.716326
RightShoulderDummy -0.047872 0.006410 0.074499 -1.394484 -1.986924 0.743342
RightShoulder 5.416442 5.414609 17.724961
RightArm -42.437513 70.338973 -7.352429
RightForeArm 112.694713
RightForeArmRoll 4.639981
RightHand -17.861844 -16.648163 11.511549
RightHandThumb1 -0.877089 13.244941
RightHandIndex1 13.877302 58.898975
RightHandPinky1 18.789406 68.078742
LeftUpLeg 4.763719 19.673514 -28.795971
LeftLeg 44.563030
LeftFoot 0.584082 -1.032273 -0.594415 -14.935803 8.993146 -7.261969
LeftToeBase -1.347656
RightUpLeg 14.654727 11.457553 -21.419624
RightLeg 56.524544
RightFoot -0.382690 0.425820 0.186918 0.419794 7.624665 -30.166871
RightToeBase -1.021490
127
root 54.037214 -2.016739 50.857169 -2.243285 2.240191 -121.766180
Spine 11.479685 -1.773972 -0.621816
Spine1 2.980690 0.896136 -1.796163
Spine2 0.662741 -2.290120 -2.451240
NeckDummy 0.005619 -0.027904 -0.020140 -1.391038 2.017419 -0.780532
Neck 16.531549 0.468974 25.568334
Head -0.247617 0.337308 0.262091 -35.491896 -3.662184 -0.300020
LeftShoulderDummy -0.065012 -0.019846 0.018378 -1.367285 1.899092 -0.571226
LeftShoulder 8.064821 -4.403857 14.072471
LeftArm 15.787587 47.196104 26.504940
LeftForeArm 88.327414
LeftForeArmRoll -34.105826
LeftHand -9.133344 4.182516 -3.786393
LeftHandThumb1 15.863018 13.154479
LeftHandIndex1 15.732801 42.897762
LeftHandPinky1 14.573001 47.717912
RightShoulderDummy -0.047624 0.007341 0.075356 -1.411993 -2.009944 0.751514
RightShoulder 5.372186 5.384870 17.734490
RightArm -42.633899 70.290802 -7.556473
RightForeArm 112.757476
RightForeArmRoll 4.703311
RightHand -17.812544 -16.602398 11.670417
RightHandThumb1 -0.795482 12.972119
RightHandIndex1 13.606532 58.879744
RightHandPinky1 18.545146 68.055176
LeftUpLeg 4.769244 19.679434 -28.802925
LeftLeg 44.631296
LeftFoot 0.566892 -1.034425 -0.592299 -14.328572 9.003680 -7.198294
LeftToeBase -1.930095
RightUpLeg 14.612725 11.453833 -21.427326
RightLeg 56.542935
RightFoot -0.378344 0.424766 0.190112 0.416748 7.622437 -30.114475
RightToeBase -0.987584
128
root 54.020389 -2.018697 50.863162 -2.233252 2.223573 -121.838923
Spine 11.483360 -1.788366 -0.627553
Spine1 2.995822 0.877666 -1.810535
Spine2 0.676938 -2.346131 -2.350209
NeckDummy 0.005192 -0.028018 -0.020460 -1.376811 1.949340 -0.786538
Neck 16.551406 0.444205 25.676269
Head -0.248694 0.338646 0.259981 -35.512165 -3.624575 -0.322850
LeftShoulderDummy -0.066085 -0.020310 0.018511 -1.353587 1.831388 -0.576164
LeftShoulder 8.019791 -4.373698 14.133386
LeftArm 15.926409 47.193098 26.531798
LeftForeArm 88.307766
LeftForeArmRoll -34.054250
LeftHand -9.143964 4.291743 -3.751411
LeftHandThumb1 15.893702 13.098455
LeftHandIndex1 15.600508 43.035053
LeftHandPinky1 14.530198 47.778770
RightShoulderDummy -0.048210 0.007194 0.073434 -1.396969 -1.943032 0.757993
RightShoulder 5.244267 5.386171 17.612159
RightArm -42.972497 70.370741 -7.899416
RightForeArm 112.784167
RightForeArmRoll 4.771473
RightHand -17.872242 -16.536999 11.467687
RightHandThumb1 -0.798440 13.295754
RightHandIndex1 13.918332 58.867038
RightHandPinky1 18.835219 67.969007
LeftUpLeg 4.787454 19.695634 -28.820581
LeftLeg 44.706816
LeftFoot 0.564839 -1.036406 -0.597941 -14.177901 9.037401 -7.211511
LeftToeBase -2.028089
RightUpLeg 14.537571 11.430691 -21.478993
RightLeg 56.606796
RightFoot -0.379745 0.425529 0.187789 0.511011 7.618597 -30.082214
RightToeBase -0.928812
